<svg width="351" height="128" viewBox="0 0 351 128" fill="none" xmlns="http://www.w3.org/2000/svg">
<rect width="351" height="128" fill="#FAFAFA"/>
<path d="M36 45C40.9706 45 45 40.9706 45 36C45 31.0294 40.9706 27 36 27C31.0294 27 27 31.0294 27 36C27 40.9706 31.0294 45 36 45Z" stroke="#818181" stroke-width="2" stroke-linecap="round" stroke-linejoin="round"/>
<path d="M36 40V36" stroke="#818181" stroke-width="2" stroke-linecap="round" stroke-linejoin="round"/>
<path d="M36 32H36.01" stroke="#818181" stroke-width="2" stroke-linecap="round" stroke-linejoin="round"/>
<path d="M71.462 33.946C72.1433 34.086 72.6613 34.3613 73.016 34.772C73.3707 35.1733 73.548 35.7007 73.548 36.354C73.548 37.2033 73.2447 37.8567 72.638 38.314C72.0407 38.7713 71.1587 39 69.992 39H65.652V29.2H69.726C70.7713 29.2 71.588 29.4147 72.176 29.844C72.764 30.2733 73.058 30.894 73.058 31.706C73.058 32.2567 72.918 32.7233 72.638 33.106C72.358 33.4793 71.966 33.7593 71.462 33.946ZM66.674 33.638H69.67C70.426 33.638 71.0047 33.484 71.406 33.176C71.8167 32.868 72.022 32.42 72.022 31.832C72.022 31.244 71.8167 30.796 71.406 30.488C71.0047 30.18 70.426 30.026 69.67 30.026H66.674V33.638ZM69.992 38.174C71.6813 38.174 72.526 37.544 72.526 36.284C72.526 35.052 71.6813 34.436 69.992 34.436H66.674V38.174H69.992ZM80.5063 39L78.1683 35.92L75.8163 39H74.6963L77.6083 35.22L74.8363 31.636H75.9563L78.1683 34.52L80.3803 31.636H81.4723L78.7003 35.22L81.6403 39H80.5063ZM86.0477 39.07C85.3384 39.07 84.699 38.9113 84.1297 38.594C83.5604 38.2673 83.1124 37.8193 82.7857 37.25C82.459 36.6807 82.2957 36.0367 82.2957 35.318C82.2957 34.5993 82.459 33.9553 82.7857 33.386C83.1124 32.8167 83.5604 32.3733 84.1297 32.056C84.699 31.7387 85.3384 31.58 86.0477 31.58C86.757 31.58 87.3964 31.7387 87.9657 32.056C88.535 32.3733 88.9784 32.8167 89.2957 33.386C89.6224 33.9553 89.7857 34.5993 89.7857 35.318C89.7857 36.0367 89.6224 36.6807 89.2957 37.25C88.9784 37.8193 88.535 38.2673 87.9657 38.594C87.3964 38.9113 86.757 39.07 86.0477 39.07ZM86.0477 38.188C86.5704 38.188 87.037 38.0713 87.4477 37.838C87.8677 37.5953 88.1944 37.2547 88.4277 36.816C88.661 36.3773 88.7777 35.878 88.7777 35.318C88.7777 34.758 88.661 34.2587 88.4277 33.82C88.1944 33.3813 87.8677 33.0453 87.4477 32.812C87.037 32.5693 86.5704 32.448 86.0477 32.448C85.525 32.448 85.0537 32.5693 84.6337 32.812C84.223 33.0453 83.8964 33.3813 83.6537 33.82C83.4204 34.2587 83.3037 34.758 83.3037 35.318C83.3037 35.878 83.4204 36.3773 83.6537 36.816C83.8964 37.2547 84.223 37.5953 84.6337 37.838C85.0537 38.0713 85.525 38.188 86.0477 38.188ZM99.0511 38.132V40.778H98.1131V39H91.5191V40.778H90.5811V38.132H91.0011C91.4957 38.104 91.8317 37.74 92.0091 37.04C92.1864 36.34 92.3077 35.36 92.3731 34.1L92.4711 31.636H97.9031V38.132H99.0511ZM93.2831 34.156C93.2364 35.2013 93.1477 36.0647 93.0171 36.746C92.8864 37.418 92.6531 37.88 92.3171 38.132H96.9091V32.518H93.3671L93.2831 34.156ZM109.342 35.192C110.341 35.4253 110.84 36.0273 110.84 36.998C110.84 37.642 110.602 38.1367 110.126 38.482C109.65 38.8273 108.941 39 107.998 39H104.652V31.636H107.9C108.74 31.636 109.398 31.7993 109.874 32.126C110.35 32.4527 110.588 32.9193 110.588 33.526C110.588 33.9273 110.476 34.2727 110.252 34.562C110.038 34.842 109.734 35.052 109.342 35.192ZM105.618 34.912H107.83C108.4 34.912 108.834 34.8047 109.132 34.59C109.44 34.3753 109.594 34.0627 109.594 33.652C109.594 33.2413 109.44 32.9333 109.132 32.728C108.834 32.5227 108.4 32.42 107.83 32.42H105.618V34.912ZM107.956 38.216C108.591 38.216 109.067 38.1133 109.384 37.908C109.702 37.7027 109.86 37.3807 109.86 36.942C109.86 36.5033 109.716 36.1813 109.426 35.976C109.137 35.7613 108.68 35.654 108.054 35.654H105.618V38.216H107.956ZM119.872 39.07C119.163 39.07 118.523 38.9113 117.954 38.594C117.385 38.2673 116.937 37.8193 116.61 37.25C116.283 36.6807 116.12 36.0367 116.12 35.318C116.12 34.5993 116.283 33.9553 116.61 33.386C116.937 32.8167 117.385 32.3733 117.954 32.056C118.523 31.7387 119.163 31.58 119.872 31.58C120.581 31.58 121.221 31.7387 121.79 32.056C122.359 32.3733 122.803 32.8167 123.12 33.386C123.447 33.9553 123.61 34.5993 123.61 35.318C123.61 36.0367 123.447 36.6807 123.12 37.25C122.803 37.8193 122.359 38.2673 121.79 38.594C121.221 38.9113 120.581 39.07 119.872 39.07ZM119.872 38.188C120.395 38.188 120.861 38.0713 121.272 37.838C121.692 37.5953 122.019 37.2547 122.252 36.816C122.485 36.3773 122.602 35.878 122.602 35.318C122.602 34.758 122.485 34.2587 122.252 33.82C122.019 33.3813 121.692 33.0453 121.272 32.812C120.861 32.5693 120.395 32.448 119.872 32.448C119.349 32.448 118.878 32.5693 118.458 32.812C118.047 33.0453 117.721 33.3813 117.478 33.82C117.245 34.2587 117.128 34.758 117.128 35.318C117.128 35.878 117.245 36.3773 117.478 36.816C117.721 37.2547 118.047 37.5953 118.458 37.838C118.878 38.0713 119.349 38.188 119.872 38.188ZM134.624 35.304C134.624 36.452 134.246 37.3527 133.49 38.006C132.734 38.6593 131.666 39.014 130.284 39.07V41.716H129.318V39.084C127.946 39.028 126.882 38.6733 126.126 38.02C125.38 37.3573 125.006 36.452 125.006 35.304C125.006 34.1653 125.38 33.274 126.126 32.63C126.882 31.986 127.946 31.636 129.318 31.58V28.612H130.284V31.58C131.666 31.6453 132.734 32 133.49 32.644C134.246 33.288 134.624 34.1747 134.624 35.304ZM125.986 35.304C125.986 36.1813 126.266 36.8673 126.826 37.362C127.396 37.8567 128.226 38.1367 129.318 38.202V32.462C128.236 32.518 127.41 32.7933 126.84 33.288C126.271 33.7733 125.986 34.4453 125.986 35.304ZM130.284 38.202C131.376 38.146 132.207 37.8707 132.776 37.376C133.355 36.8813 133.644 36.1907 133.644 35.304C133.644 34.436 133.355 33.7593 132.776 33.274C132.207 32.7887 131.376 32.518 130.284 32.462V38.202ZM136.727 31.636H137.721V37.488L142.635 31.636H143.517V39H142.523V33.148L137.623 39H136.727V31.636ZM149.445 39.07C148.717 39.07 148.064 38.9113 147.485 38.594C146.916 38.2767 146.468 37.8333 146.141 37.264C145.815 36.6853 145.651 36.0367 145.651 35.318C145.651 34.5993 145.815 33.9553 146.141 33.386C146.468 32.8167 146.916 32.3733 147.485 32.056C148.064 31.7387 148.717 31.58 149.445 31.58C150.08 31.58 150.645 31.706 151.139 31.958C151.643 32.2007 152.04 32.56 152.329 33.036L151.587 33.54C151.345 33.176 151.037 32.9053 150.663 32.728C150.29 32.5413 149.884 32.448 149.445 32.448C148.913 32.448 148.433 32.5693 148.003 32.812C147.583 33.0453 147.252 33.3813 147.009 33.82C146.776 34.2587 146.659 34.758 146.659 35.318C146.659 35.8873 146.776 36.3913 147.009 36.83C147.252 37.2593 147.583 37.5953 148.003 37.838C148.433 38.0713 148.913 38.188 149.445 38.188C149.884 38.188 150.29 38.0993 150.663 37.922C151.037 37.7447 151.345 37.474 151.587 37.11L152.329 37.614C152.04 38.09 151.643 38.454 151.139 38.706C150.635 38.9487 150.071 39.07 149.445 39.07ZM157.918 31.636H158.912V34.898H163.546V31.636H164.54V39H163.546V35.752H158.912V39H157.918V31.636ZM169.899 31.58C170.861 31.58 171.598 31.8227 172.111 32.308C172.625 32.784 172.881 33.4933 172.881 34.436V39H171.929V37.852C171.705 38.2347 171.374 38.5333 170.935 38.748C170.506 38.9627 169.993 39.07 169.395 39.07C168.574 39.07 167.921 38.874 167.435 38.482C166.95 38.09 166.707 37.572 166.707 36.928C166.707 36.3027 166.931 35.7987 167.379 35.416C167.837 35.0333 168.56 34.842 169.549 34.842H171.887V34.394C171.887 33.7593 171.71 33.2787 171.355 32.952C171.001 32.616 170.483 32.448 169.801 32.448C169.335 32.448 168.887 32.5273 168.457 32.686C168.028 32.8353 167.659 33.0453 167.351 33.316L166.903 32.574C167.277 32.2567 167.725 32.014 168.247 31.846C168.77 31.6687 169.321 31.58 169.899 31.58ZM169.549 38.286C170.109 38.286 170.59 38.16 170.991 37.908C171.393 37.6467 171.691 37.2733 171.887 36.788V35.584H169.577C168.317 35.584 167.687 36.0227 167.687 36.9C167.687 37.3293 167.851 37.67 168.177 37.922C168.504 38.1647 168.961 38.286 169.549 38.286ZM180.133 39L177.795 35.92L175.443 39H174.323L177.235 35.22L174.463 31.636H175.583L177.795 34.52L180.007 31.636H181.099L178.327 35.22L181.267 39H180.133ZM185.675 39.07C184.965 39.07 184.326 38.9113 183.757 38.594C183.187 38.2673 182.739 37.8193 182.413 37.25C182.086 36.6807 181.923 36.0367 181.923 35.318C181.923 34.5993 182.086 33.9553 182.413 33.386C182.739 32.8167 183.187 32.3733 183.757 32.056C184.326 31.7387 184.965 31.58 185.675 31.58C186.384 31.58 187.023 31.7387 187.593 32.056C188.162 32.3733 188.605 32.8167 188.923 33.386C189.249 33.9553 189.413 34.5993 189.413 35.318C189.413 36.0367 189.249 36.6807 188.923 37.25C188.605 37.8193 188.162 38.2673 187.593 38.594C187.023 38.9113 186.384 39.07 185.675 39.07ZM185.675 38.188C186.197 38.188 186.664 38.0713 187.075 37.838C187.495 37.5953 187.821 37.2547 188.055 36.816C188.288 36.3773 188.405 35.878 188.405 35.318C188.405 34.758 188.288 34.2587 188.055 33.82C187.821 33.3813 187.495 33.0453 187.075 32.812C186.664 32.5693 186.197 32.448 185.675 32.448C185.152 32.448 184.681 32.5693 184.261 32.812C183.85 33.0453 183.523 33.3813 183.281 33.82C183.047 34.2587 182.931 34.758 182.931 35.318C182.931 35.878 183.047 36.3773 183.281 36.816C183.523 37.2547 183.85 37.5953 184.261 37.838C184.681 38.0713 185.152 38.188 185.675 38.188ZM198.678 38.132V40.778H197.74V39H191.146V40.778H190.208V38.132H190.628C191.123 38.104 191.459 37.74 191.636 37.04C191.813 36.34 191.935 35.36 192 34.1L192.098 31.636H197.53V38.132H198.678ZM192.91 34.156C192.863 35.2013 192.775 36.0647 192.644 36.746C192.513 37.418 192.28 37.88 191.944 38.132H196.536V32.518H192.994L192.91 34.156ZM200.615 31.636H201.609V37.488L206.523 31.636H207.405V39H206.411V33.148L201.511 39H200.615V31.636ZM215.434 32.518H212.648V39H211.654V32.518H208.868V31.636H215.434V32.518ZM219.609 39.07C218.881 39.07 218.228 38.9113 217.649 38.594C217.08 38.2767 216.632 37.8333 216.305 37.264C215.979 36.6853 215.815 36.0367 215.815 35.318C215.815 34.5993 215.979 33.9553 216.305 33.386C216.632 32.8167 217.08 32.3733 217.649 32.056C218.228 31.7387 218.881 31.58 219.609 31.58C220.244 31.58 220.809 31.706 221.303 31.958C221.807 32.2007 222.204 32.56 222.493 33.036L221.751 33.54C221.509 33.176 221.201 32.9053 220.827 32.728C220.454 32.5413 220.048 32.448 219.609 32.448C219.077 32.448 218.597 32.5693 218.167 32.812C217.747 33.0453 217.416 33.3813 217.173 33.82C216.94 34.2587 216.823 34.758 216.823 35.318C216.823 35.8873 216.94 36.3913 217.173 36.83C217.416 37.2593 217.747 37.5953 218.167 37.838C218.597 38.0713 219.077 38.188 219.609 38.188C220.048 38.188 220.454 38.0993 220.827 37.922C221.201 37.7447 221.509 37.474 221.751 37.11L222.493 37.614C222.204 38.09 221.807 38.454 221.303 38.706C220.799 38.9487 220.235 39.07 219.609 39.07ZM229.828 31.636V39H228.918V36.564H226.608H226.328L224.62 39H223.542L225.376 36.424C224.806 36.2653 224.368 35.9947 224.06 35.612C223.752 35.2293 223.598 34.744 223.598 34.156C223.598 33.3347 223.878 32.7093 224.438 32.28C224.998 31.8507 225.763 31.636 226.734 31.636H229.828ZM224.606 34.184C224.606 35.276 225.301 35.822 226.692 35.822H228.918V32.518H226.762C225.324 32.518 224.606 33.0733 224.606 34.184ZM236.326 31.636H237.32V34.898H241.954V31.636H242.948V39H241.954V35.752H237.32V39H236.326V31.636ZM248.307 31.58C249.269 31.58 250.006 31.8227 250.519 32.308C251.033 32.784 251.289 33.4933 251.289 34.436V39H250.337V37.852C250.113 38.2347 249.782 38.5333 249.343 38.748C248.914 38.9627 248.401 39.07 247.803 39.07C246.982 39.07 246.329 38.874 245.843 38.482C245.358 38.09 245.115 37.572 245.115 36.928C245.115 36.3027 245.339 35.7987 245.787 35.416C246.245 35.0333 246.968 34.842 247.957 34.842H250.295V34.394C250.295 33.7593 250.118 33.2787 249.763 32.952C249.409 32.616 248.891 32.448 248.209 32.448C247.743 32.448 247.295 32.5273 246.865 32.686C246.436 32.8353 246.067 33.0453 245.759 33.316L245.311 32.574C245.685 32.2567 246.133 32.014 246.655 31.846C247.178 31.6687 247.729 31.58 248.307 31.58ZM247.957 38.286C248.517 38.286 248.998 38.16 249.399 37.908C249.801 37.6467 250.099 37.2733 250.295 36.788V35.584H247.985C246.725 35.584 246.095 36.0227 246.095 36.9C246.095 37.3293 246.259 37.67 246.585 37.922C246.912 38.1647 247.369 38.286 247.957 38.286ZM263.858 31.636L260.176 39.882C259.877 40.5727 259.532 41.0627 259.14 41.352C258.748 41.6413 258.276 41.786 257.726 41.786C257.371 41.786 257.04 41.73 256.732 41.618C256.424 41.506 256.158 41.338 255.934 41.114L256.396 40.372C256.769 40.7453 257.217 40.932 257.74 40.932C258.076 40.932 258.36 40.8387 258.594 40.652C258.836 40.4653 259.06 40.148 259.266 39.7L259.588 38.986L256.298 31.636H257.334L260.106 37.894L262.878 31.636H263.858ZM270.614 32.518H266.4V39H265.406V31.636H270.614V32.518ZM277.62 31.636V39H276.626V32.518H273.098L273 34.338C272.925 35.8687 272.748 37.0447 272.468 37.866C272.188 38.6873 271.688 39.098 270.97 39.098C270.774 39.098 270.536 39.0607 270.256 38.986L270.326 38.132C270.494 38.1693 270.61 38.188 270.676 38.188C271.058 38.188 271.348 38.0107 271.544 37.656C271.74 37.3013 271.87 36.8627 271.936 36.34C272.001 35.8173 272.057 35.1267 272.104 34.268L272.23 31.636H277.62ZM286.703 31.636L283.021 39.882C282.723 40.5727 282.377 41.0627 281.985 41.352C281.593 41.6413 281.122 41.786 280.571 41.786C280.217 41.786 279.885 41.73 279.577 41.618C279.269 41.506 279.003 41.338 278.779 41.114L279.241 40.372C279.615 40.7453 280.063 40.932 280.585 40.932C280.921 40.932 281.206 40.8387 281.439 40.652C281.682 40.4653 281.906 40.148 282.111 39.7L282.433 38.986L279.143 31.636H280.179L282.951 37.894L285.723 31.636H286.703ZM68.998 55.164C69.5207 55.2853 69.922 55.4953 70.202 55.794C70.4913 56.0927 70.636 56.4567 70.636 56.886C70.636 57.3153 70.4867 57.698 70.188 58.034C69.8987 58.37 69.502 58.6313 68.998 58.818C68.494 58.9953 67.9387 59.084 67.332 59.084C66.8 59.084 66.2773 59.0093 65.764 58.86C65.2507 58.7013 64.8027 58.4727 64.42 58.174L64.756 57.432C65.092 57.684 65.484 57.88 65.932 58.02C66.38 58.16 66.8327 58.23 67.29 58.23C67.9713 58.23 68.5267 58.104 68.956 57.852C69.3947 57.5907 69.614 57.2407 69.614 56.802C69.614 56.41 69.4367 56.1067 69.082 55.892C68.7273 55.668 68.242 55.556 67.626 55.556H66.366V54.828H67.57C68.1207 54.828 68.564 54.7253 68.9 54.52C69.236 54.3053 69.404 54.0207 69.404 53.666C69.404 53.274 69.2127 52.966 68.83 52.742C68.4567 52.518 67.9667 52.406 67.36 52.406C66.5667 52.406 65.7827 52.6067 65.008 53.008L64.728 52.238C65.6053 51.7807 66.5153 51.552 67.458 51.552C68.018 51.552 68.522 51.636 68.97 51.804C69.4273 51.9627 69.782 52.1913 70.034 52.49C70.2953 52.7887 70.426 53.134 70.426 53.526C70.426 53.8993 70.2953 54.2307 70.034 54.52C69.782 54.8093 69.4367 55.024 68.998 55.164ZM80.0745 58.132V60.778H79.1365V59H72.5425V60.778H71.6045V58.132H72.0245C72.5192 58.104 72.8552 57.74 73.0325 57.04C73.2098 56.34 73.3312 55.36 73.3965 54.1L73.4945 51.636H78.9265V58.132H80.0745ZM74.3065 54.156C74.2598 55.2013 74.1712 56.0647 74.0405 56.746C73.9098 57.418 73.6765 57.88 73.3405 58.132H77.9325V52.518H74.3905L74.3065 54.156ZM84.5457 51.58C85.507 51.58 86.2443 51.8227 86.7577 52.308C87.271 52.784 87.5277 53.4933 87.5277 54.436V59H86.5757V57.852C86.3517 58.2347 86.0203 58.5333 85.5817 58.748C85.1523 58.9627 84.639 59.07 84.0417 59.07C83.2203 59.07 82.567 58.874 82.0817 58.482C81.5963 58.09 81.3537 57.572 81.3537 56.928C81.3537 56.3027 81.5777 55.7987 82.0257 55.416C82.483 55.0333 83.2063 54.842 84.1957 54.842H86.5337V54.394C86.5337 53.7593 86.3563 53.2787 86.0017 52.952C85.647 52.616 85.129 52.448 84.4477 52.448C83.981 52.448 83.533 52.5273 83.1037 52.686C82.6743 52.8353 82.3057 53.0453 81.9977 53.316L81.5497 52.574C81.923 52.2567 82.371 52.014 82.8937 51.846C83.4163 51.6687 83.967 51.58 84.5457 51.58ZM84.1957 58.286C84.7557 58.286 85.2363 58.16 85.6377 57.908C86.039 57.6467 86.3377 57.2733 86.5337 56.788V55.584H84.2237C82.9637 55.584 82.3337 56.0227 82.3337 56.9C82.3337 57.3293 82.497 57.67 82.8237 57.922C83.1503 58.1647 83.6077 58.286 84.1957 58.286ZM90.1738 51.636H91.1678V54.898H95.8018V51.636H96.7958V59H95.8018V55.752H91.1678V59H90.1738V51.636ZM99.621 51.636H100.615V57.488L105.529 51.636H106.411V59H105.417V53.148L100.517 59H99.621V51.636ZM114.916 51.636V59H114.006V56.564H111.696H111.416L109.708 59H108.63L110.464 56.424C109.894 56.2653 109.456 55.9947 109.148 55.612C108.84 55.2293 108.686 54.744 108.686 54.156C108.686 53.3347 108.966 52.7093 109.526 52.28C110.086 51.8507 110.851 51.636 111.822 51.636H114.916ZM109.694 54.184C109.694 55.276 110.389 55.822 111.78 55.822H114.006V52.518H111.85C110.412 52.518 109.694 53.0733 109.694 54.184ZM124.494 59.07C123.766 59.07 123.113 58.9113 122.534 58.594C121.965 58.2767 121.517 57.8333 121.19 57.264C120.863 56.6853 120.7 56.0367 120.7 55.318C120.7 54.5993 120.863 53.9553 121.19 53.386C121.517 52.8167 121.965 52.3733 122.534 52.056C123.113 51.7387 123.766 51.58 124.494 51.58C125.129 51.58 125.693 51.706 126.188 51.958C126.692 52.2007 127.089 52.56 127.378 53.036L126.636 53.54C126.393 53.176 126.085 52.9053 125.712 52.728C125.339 52.5413 124.933 52.448 124.494 52.448C123.962 52.448 123.481 52.5693 123.052 52.812C122.632 53.0453 122.301 53.3813 122.058 53.82C121.825 54.2587 121.708 54.758 121.708 55.318C121.708 55.8873 121.825 56.3913 122.058 56.83C122.301 57.2593 122.632 57.5953 123.052 57.838C123.481 58.0713 123.962 58.188 124.494 58.188C124.933 58.188 125.339 58.0993 125.712 57.922C126.085 57.7447 126.393 57.474 126.636 57.11L127.378 57.614C127.089 58.09 126.692 58.454 126.188 58.706C125.684 58.9487 125.119 59.07 124.494 59.07ZM132.218 59.07C131.508 59.07 130.869 58.9113 130.3 58.594C129.73 58.2673 129.282 57.8193 128.956 57.25C128.629 56.6807 128.466 56.0367 128.466 55.318C128.466 54.5993 128.629 53.9553 128.956 53.386C129.282 52.8167 129.73 52.3733 130.3 52.056C130.869 51.7387 131.508 51.58 132.218 51.58C132.927 51.58 133.566 51.7387 134.136 52.056C134.705 52.3733 135.148 52.8167 135.466 53.386C135.792 53.9553 135.956 54.5993 135.956 55.318C135.956 56.0367 135.792 56.6807 135.466 57.25C135.148 57.8193 134.705 58.2673 134.136 58.594C133.566 58.9113 132.927 59.07 132.218 59.07ZM132.218 58.188C132.74 58.188 133.207 58.0713 133.618 57.838C134.038 57.5953 134.364 57.2547 134.598 56.816C134.831 56.3773 134.948 55.878 134.948 55.318C134.948 54.758 134.831 54.2587 134.598 53.82C134.364 53.3813 134.038 53.0453 133.618 52.812C133.207 52.5693 132.74 52.448 132.218 52.448C131.695 52.448 131.224 52.5693 130.804 52.812C130.393 53.0453 130.066 53.3813 129.824 53.82C129.59 54.2587 129.474 54.758 129.474 55.318C129.474 55.878 129.59 56.3773 129.824 56.816C130.066 57.2547 130.393 57.5953 130.804 57.838C131.224 58.0713 131.695 58.188 132.218 58.188ZM144.824 59.07C144.096 59.07 143.443 58.9113 142.864 58.594C142.295 58.2767 141.847 57.8333 141.52 57.264C141.193 56.6853 141.03 56.0367 141.03 55.318C141.03 54.5993 141.193 53.9553 141.52 53.386C141.847 52.8167 142.295 52.3733 142.864 52.056C143.443 51.7387 144.096 51.58 144.824 51.58C145.459 51.58 146.023 51.706 146.518 51.958C147.022 52.2007 147.419 52.56 147.708 53.036L146.966 53.54C146.723 53.176 146.415 52.9053 146.042 52.728C145.669 52.5413 145.263 52.448 144.824 52.448C144.292 52.448 143.811 52.5693 143.382 52.812C142.962 53.0453 142.631 53.3813 142.388 53.82C142.155 54.2587 142.038 54.758 142.038 55.318C142.038 55.8873 142.155 56.3913 142.388 56.83C142.631 57.2593 142.962 57.5953 143.382 57.838C143.811 58.0713 144.292 58.188 144.824 58.188C145.263 58.188 145.669 58.0993 146.042 57.922C146.415 57.7447 146.723 57.474 146.966 57.11L147.708 57.614C147.419 58.09 147.022 58.454 146.518 58.706C146.014 58.9487 145.449 59.07 144.824 59.07ZM154.676 52.518H151.89V59H150.896V52.518H148.11V51.636H154.676V52.518ZM158.809 59.07C158.1 59.07 157.461 58.9113 156.891 58.594C156.322 58.2673 155.874 57.8193 155.547 57.25C155.221 56.6807 155.057 56.0367 155.057 55.318C155.057 54.5993 155.221 53.9553 155.547 53.386C155.874 52.8167 156.322 52.3733 156.891 52.056C157.461 51.7387 158.1 51.58 158.809 51.58C159.519 51.58 160.158 51.7387 160.727 52.056C161.297 52.3733 161.74 52.8167 162.057 53.386C162.384 53.9553 162.547 54.5993 162.547 55.318C162.547 56.0367 162.384 56.6807 162.057 57.25C161.74 57.8193 161.297 58.2673 160.727 58.594C160.158 58.9113 159.519 59.07 158.809 59.07ZM158.809 58.188C159.332 58.188 159.799 58.0713 160.209 57.838C160.629 57.5953 160.956 57.2547 161.189 56.816C161.423 56.3773 161.539 55.878 161.539 55.318C161.539 54.758 161.423 54.2587 161.189 53.82C160.956 53.3813 160.629 53.0453 160.209 52.812C159.799 52.5693 159.332 52.448 158.809 52.448C158.287 52.448 157.815 52.5693 157.395 52.812C156.985 53.0453 156.658 53.3813 156.415 53.82C156.182 54.2587 156.065 54.758 156.065 55.318C156.065 55.878 156.182 56.3773 156.415 56.816C156.658 57.2547 156.985 57.5953 157.395 57.838C157.815 58.0713 158.287 58.188 158.809 58.188ZM168.466 51.58C169.156 51.58 169.782 51.7387 170.342 52.056C170.902 52.364 171.34 52.8027 171.658 53.372C171.975 53.9413 172.134 54.59 172.134 55.318C172.134 56.0553 171.975 56.7087 171.658 57.278C171.34 57.8473 170.902 58.2907 170.342 58.608C169.791 58.916 169.166 59.07 168.466 59.07C167.868 59.07 167.327 58.9487 166.842 58.706C166.366 58.454 165.974 58.09 165.666 57.614V61.716H164.672V51.636H165.624V53.092C165.922 52.6067 166.314 52.2333 166.8 51.972C167.294 51.7107 167.85 51.58 168.466 51.58ZM168.396 58.188C168.909 58.188 169.376 58.0713 169.796 57.838C170.216 57.5953 170.542 57.2547 170.776 56.816C171.018 56.3773 171.14 55.878 171.14 55.318C171.14 54.758 171.018 54.2633 170.776 53.834C170.542 53.3953 170.216 53.0547 169.796 52.812C169.376 52.5693 168.909 52.448 168.396 52.448C167.873 52.448 167.402 52.5693 166.982 52.812C166.571 53.0547 166.244 53.3953 166.002 53.834C165.768 54.2633 165.652 54.758 165.652 55.318C165.652 55.878 165.768 56.3773 166.002 56.816C166.244 57.2547 166.571 57.5953 166.982 57.838C167.402 58.0713 167.873 58.188 168.396 58.188ZM177.307 59.07C176.598 59.07 175.959 58.9113 175.389 58.594C174.82 58.2673 174.372 57.8193 174.045 57.25C173.719 56.6807 173.555 56.0367 173.555 55.318C173.555 54.5993 173.719 53.9553 174.045 53.386C174.372 52.8167 174.82 52.3733 175.389 52.056C175.959 51.7387 176.598 51.58 177.307 51.58C178.017 51.58 178.656 51.7387 179.225 52.056C179.795 52.3733 180.238 52.8167 180.555 53.386C180.882 53.9553 181.045 54.5993 181.045 55.318C181.045 56.0367 180.882 56.6807 180.555 57.25C180.238 57.8193 179.795 58.2673 179.225 58.594C178.656 58.9113 178.017 59.07 177.307 59.07ZM177.307 58.188C177.83 58.188 178.297 58.0713 178.707 57.838C179.127 57.5953 179.454 57.2547 179.687 56.816C179.921 56.3773 180.037 55.878 180.037 55.318C180.037 54.758 179.921 54.2587 179.687 53.82C179.454 53.3813 179.127 53.0453 178.707 52.812C178.297 52.5693 177.83 52.448 177.307 52.448C176.785 52.448 176.313 52.5693 175.893 52.812C175.483 53.0453 175.156 53.3813 174.913 53.82C174.68 54.2587 174.563 54.758 174.563 55.318C174.563 55.878 174.68 56.3773 174.913 56.816C175.156 57.2547 175.483 57.5953 175.893 57.838C176.313 58.0713 176.785 58.188 177.307 58.188ZM183.17 51.636H184.164V54.898H188.798V51.636H189.792V59H188.798V55.752H184.164V59H183.17V51.636ZM195.711 54.24C196.635 54.2493 197.34 54.4547 197.825 54.856C198.31 55.2573 198.553 55.836 198.553 56.592C198.553 57.376 198.292 57.978 197.769 58.398C197.246 58.818 196.5 59.0233 195.529 59.014L192.617 59V51.636H193.611V54.212L195.711 54.24ZM199.785 51.636H200.779V59H199.785V51.636ZM195.473 58.258C196.154 58.2673 196.668 58.132 197.013 57.852C197.368 57.5627 197.545 57.1427 197.545 56.592C197.545 56.0507 197.372 55.6493 197.027 55.388C196.682 55.1267 196.164 54.9913 195.473 54.982L193.611 54.954V58.23L195.473 58.258ZM73.338 69.2V79H72.316V70.096H67.584L67.472 73.372C67.4253 74.7253 67.3133 75.8173 67.136 76.648C66.968 77.4693 66.7067 78.0853 66.352 78.496C65.9973 78.8973 65.526 79.098 64.938 79.098C64.686 79.098 64.4247 79.0653 64.154 79L64.238 78.076C64.3967 78.1133 64.5507 78.132 64.7 78.132C65.1107 78.132 65.442 77.9687 65.694 77.642C65.9553 77.3153 66.1513 76.8113 66.282 76.13C66.4127 75.4393 66.5013 74.5293 66.548 73.4L66.688 69.2H73.338ZM82.8462 75.626H76.6862C76.7422 76.3913 77.0362 77.012 77.5682 77.488C78.1002 77.9547 78.7722 78.188 79.5842 78.188C80.0415 78.188 80.4615 78.1087 80.8442 77.95C81.2269 77.782 81.5582 77.5393 81.8382 77.222L82.3982 77.866C82.0715 78.258 81.6609 78.5567 81.1662 78.762C80.6809 78.9673 80.1442 79.07 79.5562 79.07C78.8002 79.07 78.1282 78.9113 77.5402 78.594C76.9615 78.2673 76.5089 77.8193 76.1822 77.25C75.8555 76.6807 75.6922 76.0367 75.6922 75.318C75.6922 74.5993 75.8462 73.9553 76.1542 73.386C76.4715 72.8167 76.9009 72.3733 77.4422 72.056C77.9929 71.7387 78.6089 71.58 79.2902 71.58C79.9715 71.58 80.5829 71.7387 81.1242 72.056C81.6655 72.3733 82.0902 72.8167 82.3982 73.386C82.7062 73.946 82.8602 74.59 82.8602 75.318L82.8462 75.626ZM79.2902 72.434C78.5809 72.434 77.9835 72.6627 77.4982 73.12C77.0222 73.568 76.7515 74.156 76.6862 74.884H81.9082C81.8429 74.156 81.5675 73.568 81.0822 73.12C80.6062 72.6627 80.0089 72.434 79.2902 72.434ZM85.0605 71.636H86.0545V74.898H90.6885V71.636H91.6825V79H90.6885V75.752H86.0545V79H85.0605V71.636ZM94.5078 71.636H95.5018V77.488L100.416 71.636H101.298V79H100.304V73.148L95.4038 79H94.5078V71.636ZM104.146 71.636H105.14V74.898H109.774V71.636H110.768V79H109.774V75.752H105.14V79H104.146V71.636ZM118.802 72.518H114.588V79H113.594V71.636H118.802V72.518ZM124.032 71.58C124.723 71.58 125.348 71.7387 125.908 72.056C126.468 72.364 126.907 72.8027 127.224 73.372C127.542 73.9413 127.7 74.59 127.7 75.318C127.7 76.0553 127.542 76.7087 127.224 77.278C126.907 77.8473 126.468 78.2907 125.908 78.608C125.358 78.916 124.732 79.07 124.032 79.07C123.435 79.07 122.894 78.9487 122.408 78.706C121.932 78.454 121.54 78.09 121.232 77.614V81.716H120.238V71.636H121.19V73.092C121.489 72.6067 121.881 72.2333 122.366 71.972C122.861 71.7107 123.416 71.58 124.032 71.58ZM123.962 78.188C124.476 78.188 124.942 78.0713 125.362 77.838C125.782 77.5953 126.109 77.2547 126.342 76.816C126.585 76.3773 126.706 75.878 126.706 75.318C126.706 74.758 126.585 74.2633 126.342 73.834C126.109 73.3953 125.782 73.0547 125.362 72.812C124.942 72.5693 124.476 72.448 123.962 72.448C123.44 72.448 122.968 72.5693 122.548 72.812C122.138 73.0547 121.811 73.3953 121.568 73.834C121.335 74.2633 121.218 74.758 121.218 75.318C121.218 75.878 121.335 76.3773 121.568 76.816C121.811 77.2547 122.138 77.5953 122.548 77.838C122.968 78.0713 123.44 78.188 123.962 78.188ZM132.329 71.58C133.29 71.58 134.028 71.8227 134.541 72.308C135.054 72.784 135.311 73.4933 135.311 74.436V79H134.359V77.852C134.135 78.2347 133.804 78.5333 133.365 78.748C132.936 78.9627 132.422 79.07 131.825 79.07C131.004 79.07 130.35 78.874 129.865 78.482C129.38 78.09 129.137 77.572 129.137 76.928C129.137 76.3027 129.361 75.7987 129.809 75.416C130.266 75.0333 130.99 74.842 131.979 74.842H134.317V74.394C134.317 73.7593 134.14 73.2787 133.785 72.952C133.43 72.616 132.912 72.448 132.231 72.448C131.764 72.448 131.316 72.5273 130.887 72.686C130.458 72.8353 130.089 73.0453 129.781 73.316L129.333 72.574C129.706 72.2567 130.154 72.014 130.677 71.846C131.2 71.6687 131.75 71.58 132.329 71.58ZM131.979 78.286C132.539 78.286 133.02 78.16 133.421 77.908C133.822 77.6467 134.121 77.2733 134.317 76.788V75.584H132.007C130.747 75.584 130.117 76.0227 130.117 76.9C130.117 77.3293 130.28 77.67 130.607 77.922C130.934 78.1647 131.391 78.286 131.979 78.286ZM145.139 78.132V80.778H144.201V79H137.607V80.778H136.669V78.132H137.089C137.584 78.104 137.92 77.74 138.097 77.04C138.274 76.34 138.396 75.36 138.461 74.1L138.559 71.636H143.991V78.132H145.139ZM139.371 74.156C139.324 75.2013 139.236 76.0647 139.105 76.746C138.974 77.418 138.741 77.88 138.405 78.132H142.997V72.518H139.455L139.371 74.156ZM150.156 79.07C149.428 79.07 148.775 78.9113 148.196 78.594C147.627 78.2767 147.179 77.8333 146.852 77.264C146.525 76.6853 146.362 76.0367 146.362 75.318C146.362 74.5993 146.525 73.9553 146.852 73.386C147.179 72.8167 147.627 72.3733 148.196 72.056C148.775 71.7387 149.428 71.58 150.156 71.58C150.791 71.58 151.355 71.706 151.85 71.958C152.354 72.2007 152.751 72.56 153.04 73.036L152.298 73.54C152.055 73.176 151.747 72.9053 151.374 72.728C151.001 72.5413 150.595 72.448 150.156 72.448C149.624 72.448 149.143 72.5693 148.714 72.812C148.294 73.0453 147.963 73.3813 147.72 73.82C147.487 74.2587 147.37 74.758 147.37 75.318C147.37 75.8873 147.487 76.3913 147.72 76.83C147.963 77.2593 148.294 77.5953 148.714 77.838C149.143 78.0713 149.624 78.188 150.156 78.188C150.595 78.188 151.001 78.0993 151.374 77.922C151.747 77.7447 152.055 77.474 152.298 77.11L153.04 77.614C152.751 78.09 152.354 78.454 151.85 78.706C151.346 78.9487 150.781 79.07 150.156 79.07ZM157.639 75.724H155.959V79H154.965V71.636H155.959V74.87H157.653L160.243 71.636H161.321L158.423 75.206L161.531 79H160.355L157.639 75.724ZM165.878 79.07C165.168 79.07 164.529 78.9113 163.96 78.594C163.39 78.2673 162.942 77.8193 162.616 77.25C162.289 76.6807 162.126 76.0367 162.126 75.318C162.126 74.5993 162.289 73.9553 162.616 73.386C162.942 72.8167 163.39 72.3733 163.96 72.056C164.529 71.7387 165.168 71.58 165.878 71.58C166.587 71.58 167.226 71.7387 167.796 72.056C168.365 72.3733 168.808 72.8167 169.126 73.386C169.452 73.9553 169.616 74.5993 169.616 75.318C169.616 76.0367 169.452 76.6807 169.126 77.25C168.808 77.8193 168.365 78.2673 167.796 78.594C167.226 78.9113 166.587 79.07 165.878 79.07ZM165.878 78.188C166.4 78.188 166.867 78.0713 167.278 77.838C167.698 77.5953 168.024 77.2547 168.258 76.816C168.491 76.3773 168.608 75.878 168.608 75.318C168.608 74.758 168.491 74.2587 168.258 73.82C168.024 73.3813 167.698 73.0453 167.278 72.812C166.867 72.5693 166.4 72.448 165.878 72.448C165.355 72.448 164.884 72.5693 164.464 72.812C164.053 73.0453 163.726 73.3813 163.484 73.82C163.25 74.2587 163.134 74.758 163.134 75.318C163.134 75.878 163.25 76.3773 163.484 76.816C163.726 77.2547 164.053 77.5953 164.464 77.838C164.884 78.0713 165.355 78.188 165.878 78.188ZM176.948 72.518H172.734V79H171.74V71.636H176.948V72.518ZM181.081 79.07C180.372 79.07 179.732 78.9113 179.163 78.594C178.594 78.2673 178.146 77.8193 177.819 77.25C177.492 76.6807 177.329 76.0367 177.329 75.318C177.329 74.5993 177.492 73.9553 177.819 73.386C178.146 72.8167 178.594 72.3733 179.163 72.056C179.732 71.7387 180.372 71.58 181.081 71.58C181.79 71.58 182.43 71.7387 182.999 72.056C183.568 72.3733 184.012 72.8167 184.329 73.386C184.656 73.9553 184.819 74.5993 184.819 75.318C184.819 76.0367 184.656 76.6807 184.329 77.25C184.012 77.8193 183.568 78.2673 182.999 78.594C182.43 78.9113 181.79 79.07 181.081 79.07ZM181.081 78.188C181.604 78.188 182.07 78.0713 182.481 77.838C182.901 77.5953 183.228 77.2547 183.461 76.816C183.694 76.3773 183.811 75.878 183.811 75.318C183.811 74.758 183.694 74.2587 183.461 73.82C183.228 73.3813 182.901 73.0453 182.481 72.812C182.07 72.5693 181.604 72.448 181.081 72.448C180.558 72.448 180.087 72.5693 179.667 72.812C179.256 73.0453 178.93 73.3813 178.687 73.82C178.454 74.2587 178.337 74.758 178.337 75.318C178.337 75.878 178.454 76.3773 178.687 76.816C178.93 77.2547 179.256 77.5953 179.667 77.838C180.087 78.0713 180.558 78.188 181.081 78.188ZM197.215 71.636V79H196.221V72.518H191.601V79H190.607V71.636H197.215ZM203.835 71.58C204.526 71.58 205.151 71.7387 205.711 72.056C206.271 72.364 206.71 72.8027 207.027 73.372C207.344 73.9413 207.503 74.59 207.503 75.318C207.503 76.0553 207.344 76.7087 207.027 77.278C206.71 77.8473 206.271 78.2907 205.711 78.608C205.16 78.916 204.535 79.07 203.835 79.07C203.238 79.07 202.696 78.9487 202.211 78.706C201.735 78.454 201.343 78.09 201.035 77.614V81.716H200.041V71.636H200.993V73.092C201.292 72.6067 201.684 72.2333 202.169 71.972C202.664 71.7107 203.219 71.58 203.835 71.58ZM203.765 78.188C204.278 78.188 204.745 78.0713 205.165 77.838C205.585 77.5953 205.912 77.2547 206.145 76.816C206.388 76.3773 206.509 75.878 206.509 75.318C206.509 74.758 206.388 74.2633 206.145 73.834C205.912 73.3953 205.585 73.0547 205.165 72.812C204.745 72.5693 204.278 72.448 203.765 72.448C203.242 72.448 202.771 72.5693 202.351 72.812C201.94 73.0547 201.614 73.3953 201.371 73.834C201.138 74.2633 201.021 74.758 201.021 75.318C201.021 75.878 201.138 76.3773 201.371 76.816C201.614 77.2547 201.94 77.5953 202.351 77.838C202.771 78.0713 203.242 78.188 203.765 78.188ZM212.677 79.07C211.967 79.07 211.328 78.9113 210.759 78.594C210.189 78.2673 209.741 77.8193 209.415 77.25C209.088 76.6807 208.925 76.0367 208.925 75.318C208.925 74.5993 209.088 73.9553 209.415 73.386C209.741 72.8167 210.189 72.3733 210.759 72.056C211.328 71.7387 211.967 71.58 212.677 71.58C213.386 71.58 214.025 71.7387 214.595 72.056C215.164 72.3733 215.607 72.8167 215.925 73.386C216.251 73.9553 216.415 74.5993 216.415 75.318C216.415 76.0367 216.251 76.6807 215.925 77.25C215.607 77.8193 215.164 78.2673 214.595 78.594C214.025 78.9113 213.386 79.07 212.677 79.07ZM212.677 78.188C213.199 78.188 213.666 78.0713 214.077 77.838C214.497 77.5953 214.823 77.2547 215.057 76.816C215.29 76.3773 215.407 75.878 215.407 75.318C215.407 74.758 215.29 74.2587 215.057 73.82C214.823 73.3813 214.497 73.0453 214.077 72.812C213.666 72.5693 213.199 72.448 212.677 72.448C212.154 72.448 211.683 72.5693 211.263 72.812C210.852 73.0453 210.525 73.3813 210.283 73.82C210.049 74.2587 209.933 74.758 209.933 75.318C209.933 75.878 210.049 76.3773 210.283 76.816C210.525 77.2547 210.852 77.5953 211.263 77.838C211.683 78.0713 212.154 78.188 212.677 78.188ZM221.619 79.07C220.891 79.07 220.238 78.9113 219.659 78.594C219.09 78.2767 218.642 77.8333 218.315 77.264C217.988 76.6853 217.825 76.0367 217.825 75.318C217.825 74.5993 217.988 73.9553 218.315 73.386C218.642 72.8167 219.09 72.3733 219.659 72.056C220.238 71.7387 220.891 71.58 221.619 71.58C222.254 71.58 222.818 71.706 223.313 71.958C223.817 72.2007 224.214 72.56 224.503 73.036L223.761 73.54C223.518 73.176 223.21 72.9053 222.837 72.728C222.464 72.5413 222.058 72.448 221.619 72.448C221.087 72.448 220.606 72.5693 220.177 72.812C219.757 73.0453 219.426 73.3813 219.183 73.82C218.95 74.2587 218.833 74.758 218.833 75.318C218.833 75.8873 218.95 76.3913 219.183 76.83C219.426 77.2593 219.757 77.5953 220.177 77.838C220.606 78.0713 221.087 78.188 221.619 78.188C222.058 78.188 222.464 78.0993 222.837 77.922C223.21 77.7447 223.518 77.474 223.761 77.11L224.503 77.614C224.214 78.09 223.817 78.454 223.313 78.706C222.809 78.9487 222.244 79.07 221.619 79.07ZM233.036 71.636V79H232.042V72.518H227.422V79H226.428V71.636H233.036ZM242.301 75.626H236.141C236.197 76.3913 236.491 77.012 237.023 77.488C237.555 77.9547 238.227 78.188 239.039 78.188C239.497 78.188 239.917 78.1087 240.299 77.95C240.682 77.782 241.013 77.5393 241.293 77.222L241.853 77.866C241.527 78.258 241.116 78.5567 240.621 78.762C240.136 78.9673 239.599 79.07 239.011 79.07C238.255 79.07 237.583 78.9113 236.995 78.594C236.417 78.2673 235.964 77.8193 235.637 77.25C235.311 76.6807 235.147 76.0367 235.147 75.318C235.147 74.5993 235.301 73.9553 235.609 73.386C235.927 72.8167 236.356 72.3733 236.897 72.056C237.448 71.7387 238.064 71.58 238.745 71.58C239.427 71.58 240.038 71.7387 240.579 72.056C241.121 72.3733 241.545 72.8167 241.853 73.386C242.161 73.946 242.315 74.59 242.315 75.318L242.301 75.626ZM238.745 72.434C238.036 72.434 237.439 72.6627 236.953 73.12C236.477 73.568 236.207 74.156 236.141 74.884H241.363C241.298 74.156 241.023 73.568 240.537 73.12C240.061 72.6627 239.464 72.434 238.745 72.434ZM247.19 75.724H245.51V79H244.516V71.636H245.51V74.87H247.204L249.794 71.636H250.872L247.974 75.206L251.082 79H249.906L247.19 75.724ZM257.68 72.518H254.894V79H253.9V72.518H251.114V71.636H257.68V72.518ZM261.651 71.58C262.612 71.58 263.35 71.8227 263.863 72.308C264.376 72.784 264.633 73.4933 264.633 74.436V79H263.681V77.852C263.457 78.2347 263.126 78.5333 262.687 78.748C262.258 78.9627 261.744 79.07 261.147 79.07C260.326 79.07 259.672 78.874 259.187 78.482C258.702 78.09 258.459 77.572 258.459 76.928C258.459 76.3027 258.683 75.7987 259.131 75.416C259.588 75.0333 260.312 74.842 261.301 74.842H263.639V74.394C263.639 73.7593 263.462 73.2787 263.107 72.952C262.752 72.616 262.234 72.448 261.553 72.448C261.086 72.448 260.638 72.5273 260.209 72.686C259.78 72.8353 259.411 73.0453 259.103 73.316L258.655 72.574C259.028 72.2567 259.476 72.014 259.999 71.846C260.522 71.6687 261.072 71.58 261.651 71.58ZM261.301 78.286C261.861 78.286 262.342 78.16 262.743 77.908C263.144 77.6467 263.443 77.2733 263.639 76.788V75.584H261.329C260.069 75.584 259.439 76.0227 259.439 76.9C259.439 77.3293 259.602 77.67 259.929 77.922C260.256 78.1647 260.713 78.286 261.301 78.286ZM270.943 71.636H271.937V74.898H276.571V71.636H277.565V79H276.571V75.752H271.937V79H270.943V71.636ZM282.925 71.58C283.886 71.58 284.623 71.8227 285.137 72.308C285.65 72.784 285.907 73.4933 285.907 74.436V79H284.955V77.852C284.731 78.2347 284.399 78.5333 283.961 78.748C283.531 78.9627 283.018 79.07 282.421 79.07C281.599 79.07 280.946 78.874 280.461 78.482C279.975 78.09 279.733 77.572 279.733 76.928C279.733 76.3027 279.957 75.7987 280.405 75.416C280.862 75.0333 281.585 74.842 282.575 74.842H284.913V74.394C284.913 73.7593 284.735 73.2787 284.381 72.952C284.026 72.616 283.508 72.448 282.827 72.448C282.36 72.448 281.912 72.5273 281.483 72.686C281.053 72.8353 280.685 73.0453 280.377 73.316L279.929 72.574C280.302 72.2567 280.75 72.014 281.273 71.846C281.795 71.6687 282.346 71.58 282.925 71.58ZM282.575 78.286C283.135 78.286 283.615 78.16 284.017 77.908C284.418 77.6467 284.717 77.2733 284.913 76.788V75.584H282.603C281.343 75.584 280.713 76.0227 280.713 76.9C280.713 77.3293 280.876 77.67 281.203 77.922C281.529 78.1647 281.987 78.286 282.575 78.286ZM72.022 91.636V99H71.028V92.518H66.408V99H65.414V91.636H72.022ZM81.2876 95.626H75.1276C75.1836 96.3913 75.4776 97.012 76.0096 97.488C76.5416 97.9547 77.2136 98.188 78.0256 98.188C78.4829 98.188 78.9029 98.1087 79.2856 97.95C79.6683 97.782 79.9996 97.5393 80.2796 97.222L80.8396 97.866C80.5129 98.258 80.1023 98.5567 79.6076 98.762C79.1223 98.9673 78.5856 99.07 77.9976 99.07C77.2416 99.07 76.5696 98.9113 75.9816 98.594C75.4029 98.2673 74.9503 97.8193 74.6236 97.25C74.2969 96.6807 74.1336 96.0367 74.1336 95.318C74.1336 94.5993 74.2876 93.9553 74.5956 93.386C74.9129 92.8167 75.3423 92.3733 75.8836 92.056C76.4343 91.7387 77.0503 91.58 77.7316 91.58C78.4129 91.58 79.0243 91.7387 79.5656 92.056C80.1069 92.3733 80.5316 92.8167 80.8396 93.386C81.1476 93.946 81.3016 94.59 81.3016 95.318L81.2876 95.626ZM77.7316 92.434C77.0223 92.434 76.4249 92.6627 75.9396 93.12C75.4636 93.568 75.1929 94.156 75.1276 94.884H80.3496C80.2843 94.156 80.0089 93.568 79.5236 93.12C79.0476 92.6627 78.4503 92.434 77.7316 92.434ZM87.2959 91.58C87.9866 91.58 88.6119 91.7387 89.1719 92.056C89.7319 92.364 90.1706 92.8027 90.4879 93.372C90.8052 93.9413 90.9639 94.59 90.9639 95.318C90.9639 96.0553 90.8052 96.7087 90.4879 97.278C90.1706 97.8473 89.7319 98.2907 89.1719 98.608C88.6212 98.916 87.9959 99.07 87.2959 99.07C86.6986 99.07 86.1572 98.9487 85.6719 98.706C85.1959 98.454 84.8039 98.09 84.4959 97.614V101.716H83.5019V91.636H84.4539V93.092C84.7526 92.6067 85.1446 92.2333 85.6299 91.972C86.1246 91.7107 86.6799 91.58 87.2959 91.58ZM87.2259 98.188C87.7392 98.188 88.2059 98.0713 88.6259 97.838C89.0459 97.5953 89.3726 97.2547 89.6059 96.816C89.8486 96.3773 89.9699 95.878 89.9699 95.318C89.9699 94.758 89.8486 94.2633 89.6059 93.834C89.3726 93.3953 89.0459 93.0547 88.6259 92.812C88.2059 92.5693 87.7392 92.448 87.2259 92.448C86.7032 92.448 86.2319 92.5693 85.8119 92.812C85.4012 93.0547 85.0746 93.3953 84.8319 93.834C84.5986 94.2633 84.4819 94.758 84.4819 95.318C84.4819 95.878 84.5986 96.3773 84.8319 96.816C85.0746 97.2547 85.4012 97.5953 85.8119 97.838C86.2319 98.0713 86.7032 98.188 87.2259 98.188ZM99.5395 95.626H93.3795C93.4355 96.3913 93.7295 97.012 94.2615 97.488C94.7935 97.9547 95.4655 98.188 96.2775 98.188C96.7349 98.188 97.1549 98.1087 97.5375 97.95C97.9202 97.782 98.2515 97.5393 98.5315 97.222L99.0915 97.866C98.7649 98.258 98.3542 98.5567 97.8595 98.762C97.3742 98.9673 96.8375 99.07 96.2495 99.07C95.4935 99.07 94.8215 98.9113 94.2335 98.594C93.6549 98.2673 93.2022 97.8193 92.8755 97.25C92.5489 96.6807 92.3855 96.0367 92.3855 95.318C92.3855 94.5993 92.5395 93.9553 92.8475 93.386C93.1649 92.8167 93.5942 92.3733 94.1355 92.056C94.6862 91.7387 95.3022 91.58 95.9835 91.58C96.6649 91.58 97.2762 91.7387 97.8175 92.056C98.3589 92.3733 98.7835 92.8167 99.0915 93.386C99.3995 93.946 99.5535 94.59 99.5535 95.318L99.5395 95.626ZM95.9835 92.434C95.2742 92.434 94.6769 92.6627 94.1915 93.12C93.7155 93.568 93.4449 94.156 93.3795 94.884H98.6015C98.5362 94.156 98.2609 93.568 97.7755 93.12C97.2995 92.6627 96.7022 92.434 95.9835 92.434ZM104.834 99.07C104.106 99.07 103.453 98.9113 102.874 98.594C102.305 98.2767 101.857 97.8333 101.53 97.264C101.203 96.6853 101.04 96.0367 101.04 95.318C101.04 94.5993 101.203 93.9553 101.53 93.386C101.857 92.8167 102.305 92.3733 102.874 92.056C103.453 91.7387 104.106 91.58 104.834 91.58C105.469 91.58 106.033 91.706 106.528 91.958C107.032 92.2007 107.429 92.56 107.718 93.036L106.976 93.54C106.733 93.176 106.425 92.9053 106.052 92.728C105.679 92.5413 105.273 92.448 104.834 92.448C104.302 92.448 103.821 92.5693 103.392 92.812C102.972 93.0453 102.641 93.3813 102.398 93.82C102.165 94.2587 102.048 94.758 102.048 95.318C102.048 95.8873 102.165 96.3913 102.398 96.83C102.641 97.2593 102.972 97.5953 103.392 97.838C103.821 98.0713 104.302 98.188 104.834 98.188C105.273 98.188 105.679 98.0993 106.052 97.922C106.425 97.7447 106.733 97.474 106.976 97.11L107.718 97.614C107.429 98.09 107.032 98.454 106.528 98.706C106.024 98.9487 105.459 99.07 104.834 99.07ZM115.959 95.626H109.799C109.855 96.3913 110.149 97.012 110.681 97.488C111.213 97.9547 111.885 98.188 112.697 98.188C113.155 98.188 113.575 98.1087 113.957 97.95C114.34 97.782 114.671 97.5393 114.951 97.222L115.511 97.866C115.185 98.258 114.774 98.5567 114.279 98.762C113.794 98.9673 113.257 99.07 112.669 99.07C111.913 99.07 111.241 98.9113 110.653 98.594C110.075 98.2673 109.622 97.8193 109.295 97.25C108.969 96.6807 108.805 96.0367 108.805 95.318C108.805 94.5993 108.959 93.9553 109.267 93.386C109.585 92.8167 110.014 92.3733 110.555 92.056C111.106 91.7387 111.722 91.58 112.403 91.58C113.085 91.58 113.696 91.7387 114.237 92.056C114.779 92.3733 115.203 92.8167 115.511 93.386C115.819 93.946 115.973 94.59 115.973 95.318L115.959 95.626ZM112.403 92.434C111.694 92.434 111.097 92.6627 110.611 93.12C110.135 93.568 109.865 94.156 109.799 94.884H115.021C114.956 94.156 114.681 93.568 114.195 93.12C113.719 92.6627 113.122 92.434 112.403 92.434ZM123.732 91.636V99H122.738V95.934C121.888 96.3073 121.053 96.494 120.232 96.494C119.345 96.494 118.654 96.2933 118.16 95.892C117.665 95.4813 117.418 94.87 117.418 94.058V91.636H118.412V94.002C118.412 94.5527 118.589 94.9727 118.944 95.262C119.298 95.542 119.788 95.682 120.414 95.682C121.104 95.682 121.879 95.5 122.738 95.136V91.636H123.732ZM132.995 95.626H126.835C126.891 96.3913 127.185 97.012 127.717 97.488C128.249 97.9547 128.921 98.188 129.733 98.188C130.19 98.188 130.61 98.1087 130.993 97.95C131.375 97.782 131.707 97.5393 131.987 97.222L132.547 97.866C132.22 98.258 131.809 98.5567 131.315 98.762C130.829 98.9673 130.293 99.07 129.705 99.07C128.949 99.07 128.277 98.9113 127.689 98.594C127.11 98.2673 126.657 97.8193 126.331 97.25C126.004 96.6807 125.841 96.0367 125.841 95.318C125.841 94.5993 125.995 93.9553 126.303 93.386C126.62 92.8167 127.049 92.3733 127.591 92.056C128.141 91.7387 128.757 91.58 129.439 91.58C130.12 91.58 130.731 91.7387 131.273 92.056C131.814 92.3733 132.239 92.8167 132.547 93.386C132.855 93.946 133.009 94.59 133.009 95.318L132.995 95.626ZM129.439 92.434C128.729 92.434 128.132 92.6627 127.647 93.12C127.171 93.568 126.9 94.156 126.835 94.884H132.057C131.991 94.156 131.716 93.568 131.231 93.12C130.755 92.6627 130.157 92.434 129.439 92.434ZM135.209 91.636H136.203V94.898H140.837V91.636H141.831V99H140.837V95.752H136.203V99H135.209V91.636ZM144.656 91.636H145.65V97.488L150.564 91.636H151.446V99H150.452V93.148L145.552 99H144.656V91.636ZM154.295 91.636H155.289V97.488L160.203 91.636H161.085V99H160.091V93.148L155.191 99H154.295V91.636ZM170.678 99.07C169.95 99.07 169.296 98.9113 168.718 98.594C168.148 98.2767 167.7 97.8333 167.374 97.264C167.047 96.6853 166.884 96.0367 166.884 95.318C166.884 94.5993 167.047 93.9553 167.374 93.386C167.7 92.8167 168.148 92.3733 168.718 92.056C169.296 91.7387 169.95 91.58 170.678 91.58C171.312 91.58 171.877 91.706 172.372 91.958C172.876 92.2007 173.272 92.56 173.562 93.036L172.82 93.54C172.577 93.176 172.269 92.9053 171.896 92.728C171.522 92.5413 171.116 92.448 170.678 92.448C170.146 92.448 169.665 92.5693 169.236 92.812C168.816 93.0453 168.484 93.3813 168.242 93.82C168.008 94.2587 167.892 94.758 167.892 95.318C167.892 95.8873 168.008 96.3913 168.242 96.83C168.484 97.2593 168.816 97.5953 169.236 97.838C169.665 98.0713 170.146 98.188 170.678 98.188C171.116 98.188 171.522 98.0993 171.896 97.922C172.269 97.7447 172.577 97.474 172.82 97.11L173.562 97.614C173.272 98.09 172.876 98.454 172.372 98.706C171.868 98.9487 171.303 99.07 170.678 99.07ZM185.408 91.636L181.726 99.882C181.428 100.573 181.082 101.063 180.69 101.352C180.298 101.641 179.827 101.786 179.276 101.786C178.922 101.786 178.59 101.73 178.282 101.618C177.974 101.506 177.708 101.338 177.484 101.114L177.946 100.372C178.32 100.745 178.768 100.932 179.29 100.932C179.626 100.932 179.911 100.839 180.144 100.652C180.387 100.465 180.611 100.148 180.816 99.7L181.138 98.986L177.848 91.636H178.884L181.656 97.894L184.428 91.636H185.408ZM192.649 91.636V99H191.655V92.518H188.127L188.029 94.338C187.954 95.8687 187.777 97.0447 187.497 97.866C187.217 98.6873 186.718 99.098 185.999 99.098C185.803 99.098 185.565 99.0607 185.285 98.986L185.355 98.132C185.523 98.1693 185.64 98.188 185.705 98.188C186.088 98.188 186.377 98.0107 186.573 97.656C186.769 97.3013 186.9 96.8627 186.965 96.34C187.03 95.8173 187.086 95.1267 187.133 94.268L187.259 91.636H192.649ZM195.545 99.07C195.339 99.07 195.162 98.9953 195.013 98.846C194.873 98.6967 194.803 98.5147 194.803 98.3C194.803 98.0853 194.873 97.908 195.013 97.768C195.162 97.6187 195.339 97.544 195.545 97.544C195.75 97.544 195.927 97.6187 196.077 97.768C196.226 97.908 196.301 98.0853 196.301 98.3C196.301 98.5147 196.226 98.6967 196.077 98.846C195.927 98.9953 195.75 99.07 195.545 99.07ZM202.343 89.2H209.511V90.082H203.365V93.288H206.571C207.729 93.288 208.606 93.526 209.203 94.002C209.81 94.478 210.113 95.1687 210.113 96.074C210.113 97.0167 209.787 97.74 209.133 98.244C208.489 98.748 207.561 99 206.347 99H202.343V89.2ZM206.333 98.174C207.239 98.174 207.92 98.0013 208.377 97.656C208.844 97.3107 209.077 96.7973 209.077 96.116C209.077 95.444 208.849 94.9447 208.391 94.618C207.943 94.282 207.257 94.114 206.333 94.114H203.365V98.174H206.333ZM214.811 91.58C215.773 91.58 216.51 91.8227 217.023 92.308C217.537 92.784 217.793 93.4933 217.793 94.436V99H216.841V97.852C216.617 98.2347 216.286 98.5333 215.847 98.748C215.418 98.9627 214.905 99.07 214.307 99.07C213.486 99.07 212.833 98.874 212.347 98.482C211.862 98.09 211.619 97.572 211.619 96.928C211.619 96.3027 211.843 95.7987 212.291 95.416C212.749 95.0333 213.472 94.842 214.461 94.842H216.799V94.394C216.799 93.7593 216.622 93.2787 216.267 92.952C215.913 92.616 215.395 92.448 214.713 92.448C214.247 92.448 213.799 92.5273 213.369 92.686C212.94 92.8353 212.571 93.0453 212.263 93.316L211.815 92.574C212.189 92.2567 212.637 92.014 213.159 91.846C213.682 91.6687 214.233 91.58 214.811 91.58ZM214.461 98.286C215.021 98.286 215.502 98.16 215.903 97.908C216.305 97.6467 216.603 97.2733 216.799 96.788V95.584H214.489C213.229 95.584 212.599 96.0227 212.599 96.9C212.599 97.3293 212.763 97.67 213.089 97.922C213.416 98.1647 213.873 98.286 214.461 98.286ZM226.459 91.636V99H225.465V92.518H221.937L221.839 94.338C221.765 95.8687 221.587 97.0447 221.307 97.866C221.027 98.6873 220.528 99.098 219.809 99.098C219.613 99.098 219.375 99.0607 219.095 98.986L219.165 98.132C219.333 98.1693 219.45 98.188 219.515 98.188C219.898 98.188 220.187 98.0107 220.383 97.656C220.579 97.3013 220.71 96.8627 220.775 96.34C220.841 95.8173 220.897 95.1267 220.943 94.268L221.069 91.636H226.459ZM234.465 92.518H231.679V99H230.685V92.518H227.899V91.636H234.465V92.518ZM235.902 91.636H236.896V97.488L241.81 91.636H242.692V99H241.698V93.148L236.798 99H235.902V91.636ZM245.541 91.636H246.535V97.488L251.449 91.636H252.331V99H251.337V93.148L246.437 99H245.541V91.636ZM248.887 90.572C248.252 90.572 247.748 90.4133 247.375 90.096C247.002 89.7787 246.81 89.3307 246.801 88.752H247.515C247.524 89.116 247.655 89.41 247.907 89.634C248.159 89.8487 248.486 89.956 248.887 89.956C249.288 89.956 249.615 89.8487 249.867 89.634C250.128 89.41 250.264 89.116 250.273 88.752H250.987C250.978 89.3307 250.782 89.7787 250.399 90.096C250.026 90.4133 249.522 90.572 248.887 90.572ZM258.26 99.07C257.532 99.07 256.878 98.9113 256.3 98.594C255.73 98.2767 255.282 97.8333 254.956 97.264C254.629 96.6853 254.466 96.0367 254.466 95.318C254.466 94.5993 254.629 93.9553 254.956 93.386C255.282 92.8167 255.73 92.3733 256.3 92.056C256.878 91.7387 257.532 91.58 258.26 91.58C258.894 91.58 259.459 91.706 259.954 91.958C260.458 92.2007 260.854 92.56 261.144 93.036L260.402 93.54C260.159 93.176 259.851 92.9053 259.478 92.728C259.104 92.5413 258.698 92.448 258.26 92.448C257.728 92.448 257.247 92.5693 256.818 92.812C256.398 93.0453 256.066 93.3813 255.824 93.82C255.59 94.2587 255.474 94.758 255.474 95.318C255.474 95.8873 255.59 96.3913 255.824 96.83C256.066 97.2593 256.398 97.5953 256.818 97.838C257.247 98.0713 257.728 98.188 258.26 98.188C258.698 98.188 259.104 98.0993 259.478 97.922C259.851 97.7447 260.159 97.474 260.402 97.11L261.144 97.614C260.854 98.09 260.458 98.454 259.954 98.706C259.45 98.9487 258.885 99.07 258.26 99.07ZM265.742 95.724H264.062V99H263.068V91.636H264.062V94.87H265.756L268.346 91.636H269.424L266.526 95.206L269.634 99H268.458L265.742 95.724ZM273.6 91.58C274.562 91.58 275.299 91.8227 275.812 92.308C276.326 92.784 276.582 93.4933 276.582 94.436V99H275.63V97.852C275.406 98.2347 275.075 98.5333 274.636 98.748C274.207 98.9627 273.694 99.07 273.096 99.07C272.275 99.07 271.622 98.874 271.136 98.482C270.651 98.09 270.408 97.572 270.408 96.928C270.408 96.3027 270.632 95.7987 271.08 95.416C271.538 95.0333 272.261 94.842 273.25 94.842H275.588V94.394C275.588 93.7593 275.411 93.2787 275.056 92.952C274.702 92.616 274.184 92.448 273.502 92.448C273.036 92.448 272.588 92.5273 272.158 92.686C271.729 92.8353 271.36 93.0453 271.052 93.316L270.604 92.574C270.978 92.2567 271.426 92.014 271.948 91.846C272.471 91.6687 273.022 91.58 273.6 91.58ZM273.25 98.286C273.81 98.286 274.291 98.16 274.692 97.908C275.094 97.6467 275.392 97.2733 275.588 96.788V95.584H273.278C272.018 95.584 271.388 96.0227 271.388 96.9C271.388 97.3293 271.552 97.67 271.878 97.922C272.205 98.1647 272.662 98.286 273.25 98.286ZM284.884 91.636V99H283.974V96.564H281.664H281.384L279.676 99H278.598L280.432 96.424C279.863 96.2653 279.424 95.9947 279.116 95.612C278.808 95.2293 278.654 94.744 278.654 94.156C278.654 93.3347 278.934 92.7093 279.494 92.28C280.054 91.8507 280.82 91.636 281.79 91.636H284.884ZM279.662 94.184C279.662 95.276 280.358 95.822 281.748 95.822H283.974V92.518H281.818C280.381 92.518 279.662 93.0733 279.662 94.184ZM287.789 99.07C287.583 99.07 287.406 98.9953 287.257 98.846C287.117 98.6967 287.047 98.5147 287.047 98.3C287.047 98.0853 287.117 97.908 287.257 97.768C287.406 97.6187 287.583 97.544 287.789 97.544C287.994 97.544 288.171 97.6187 288.321 97.768C288.47 97.908 288.545 98.0853 288.545 98.3C288.545 98.5147 288.47 98.6967 288.321 98.846C288.171 98.9953 287.994 99.07 287.789 99.07Z" fill="#818181"/>
</svg>
